<?xml version="1.0" encoding="UTF-8" standalone="no"?>
<!DOCTYPE svg PUBLIC "-//W3C//DTD SVG 1.1//EN" "http://www.w3.org/Graphics/SVG/1.1/DTD/svg11.dtd">
<svg width="100%" height="100%" viewBox="0 0 436 84" version="1.1" xmlns="http://www.w3.org/2000/svg" xmlns:xlink="http://www.w3.org/1999/xlink" xml:space="preserve" xmlns:serif="http://www.serif.com/" style="fill-rule:evenodd;clip-rule:evenodd;stroke-linejoin:round;stroke-miterlimit:2;">
    <g transform="matrix(1,0,0,1,-139.835,-300)">
        <g transform="matrix(9.18263,0,0,9.18263,-1676.69,-2809.5)">
            <path d="M199.065,344.693L199.065,343.158L201.203,343.158C201.516,343.158 201.769,343.107 201.962,343.006C202.155,342.904 202.298,342.765 202.39,342.587C202.482,342.409 202.527,342.205 202.527,341.975C202.527,341.74 202.482,341.521 202.39,341.318C202.298,341.115 202.155,340.951 201.962,340.826C201.769,340.701 201.516,340.639 201.203,340.639L199.733,340.639L199.733,347.629L197.822,347.629L197.822,339.098L201.203,339.098C201.879,339.098 202.46,339.222 202.946,339.47C203.433,339.718 203.806,340.057 204.066,340.486C204.325,340.916 204.455,341.408 204.455,341.963C204.455,342.514 204.325,342.994 204.066,343.404C203.806,343.814 203.433,344.132 202.946,344.356C202.46,344.581 201.879,344.693 201.203,344.693L199.065,344.693Z" style="fill:url(#_Linear1);fill-rule:nonzero;"/>
            <path d="M207.297,347.629L205.463,347.629L205.463,338.629L207.297,338.629L207.297,347.629ZM206.565,344.277C206.565,343.676 206.663,343.142 206.86,342.675C207.058,342.208 207.334,341.841 207.69,341.573C208.045,341.306 208.463,341.172 208.943,341.172C209.361,341.172 209.729,341.253 210.045,341.415C210.361,341.577 210.609,341.841 210.786,342.206C210.964,342.571 211.053,343.059 211.053,343.668L211.053,347.629L209.213,347.629L209.213,343.656C209.213,343.394 209.176,343.191 209.102,343.047C209.027,342.902 208.919,342.801 208.776,342.742C208.634,342.684 208.461,342.654 208.258,342.654C208.024,342.654 207.829,342.693 207.675,342.771C207.521,342.85 207.397,342.96 207.303,343.102C207.209,343.245 207.143,343.414 207.104,343.609C207.065,343.805 207.045,344.019 207.045,344.254L206.565,344.277Z" style="fill:url(#_Linear2);fill-rule:nonzero;"/>
            <path d="M215.611,343.41C215.611,343.137 215.544,342.919 215.409,342.757C215.275,342.595 215.059,342.514 214.762,342.514C214.594,342.514 214.45,342.541 214.331,342.596C214.212,342.65 214.12,342.729 214.056,342.833C213.991,342.936 213.959,343.066 213.959,343.223L212.131,343.223C212.131,342.836 212.243,342.489 212.468,342.183C212.693,341.876 213.009,341.631 213.417,341.447C213.825,341.264 214.307,341.172 214.861,341.172C215.358,341.172 215.8,341.255 216.189,341.421C216.577,341.587 216.885,341.837 217.111,342.171C217.338,342.505 217.451,342.922 217.451,343.422L217.451,346.053C217.451,346.439 217.474,346.741 217.519,346.958C217.564,347.175 217.627,347.365 217.709,347.529L217.709,347.629L215.869,347.629C215.783,347.445 215.719,347.216 215.676,346.94C215.633,346.665 215.611,346.383 215.611,346.094L215.611,343.41ZM215.858,344.787L214.967,344.787C214.557,344.787 214.263,344.879 214.085,345.062C213.907,345.246 213.818,345.465 213.818,345.719C213.818,345.906 213.886,346.061 214.021,346.185C214.155,346.308 214.334,346.369 214.557,346.369C214.791,346.369 214.994,346.323 215.166,346.231C215.338,346.14 215.47,346.03 215.562,345.903C215.653,345.776 215.695,345.658 215.688,345.549L216.145,346.334C216.082,346.49 215.999,346.65 215.896,346.814C215.792,346.978 215.662,347.131 215.506,347.271C215.35,347.412 215.16,347.526 214.938,347.614C214.715,347.702 214.451,347.746 214.147,347.746C213.748,347.746 213.385,347.665 213.057,347.503C212.729,347.341 212.468,347.116 212.275,346.829C212.081,346.542 211.984,346.211 211.984,345.836C211.984,345.176 212.23,344.662 212.72,344.295C213.21,343.928 213.947,343.744 214.932,343.744L215.846,343.744L215.858,344.787Z" style="fill:url(#_Linear3);fill-rule:nonzero;"/>
            <path d="M220.451,347.629L218.623,347.629L218.623,341.289L220.34,341.289L220.451,342.643L220.451,347.629ZM219.725,344.277C219.725,343.629 219.828,343.073 220.035,342.61C220.242,342.147 220.532,341.792 220.905,341.544C221.278,341.296 221.711,341.172 222.203,341.172C222.602,341.172 222.95,341.25 223.249,341.406C223.548,341.562 223.782,341.818 223.952,342.174C224.122,342.529 224.207,343.012 224.207,343.621L224.207,347.629L222.367,347.629L222.367,343.609C222.367,343.355 222.331,343.159 222.259,343.02C222.187,342.882 222.079,342.786 221.937,342.733C221.794,342.681 221.621,342.654 221.418,342.654C221.207,342.654 221.026,342.693 220.873,342.771C220.721,342.85 220.595,342.96 220.495,343.102C220.396,343.245 220.322,343.414 220.276,343.609C220.229,343.805 220.205,344.019 220.205,344.254L219.725,344.277Z" style="fill:url(#_Linear4);fill-rule:nonzero;"/>
            <path d="M228.625,342.619L224.852,342.619L224.852,341.289L228.625,341.289L228.625,342.619ZM227.565,339.725L227.565,345.613C227.565,345.781 227.586,345.911 227.629,346.003C227.672,346.095 227.741,346.158 227.837,346.193C227.933,346.228 228.055,346.246 228.203,346.246C228.309,346.246 228.401,346.242 228.482,346.234C228.562,346.227 228.631,346.217 228.69,346.205L228.69,347.582C228.537,347.637 228.375,347.678 228.203,347.705C228.031,347.732 227.84,347.746 227.629,347.746C227.238,347.746 226.901,347.682 226.618,347.553C226.335,347.424 226.116,347.218 225.962,346.935C225.808,346.651 225.731,346.283 225.731,345.83L225.731,339.725L227.565,339.725Z" style="fill:url(#_Linear5);fill-rule:nonzero;"/>
            <path d="M229.111,344.4C229.111,343.783 229.229,343.231 229.463,342.745C229.697,342.259 230.039,341.875 230.488,341.594C230.938,341.312 231.484,341.172 232.129,341.172C232.785,341.172 233.339,341.312 233.79,341.594C234.241,341.875 234.583,342.259 234.816,342.745C235.048,343.231 235.164,343.783 235.164,344.4L235.164,344.523C235.164,345.137 235.048,345.687 234.816,346.176C234.583,346.664 234.242,347.048 233.793,347.327C233.344,347.606 232.793,347.746 232.141,347.746C231.492,347.746 230.943,347.606 230.491,347.327C230.04,347.048 229.697,346.664 229.463,346.176C229.229,345.687 229.111,345.137 229.111,344.523L229.111,344.4ZM230.945,344.523C230.945,344.848 230.983,345.143 231.057,345.408C231.131,345.674 231.256,345.885 231.432,346.041C231.608,346.197 231.844,346.275 232.141,346.275C232.438,346.275 232.674,346.197 232.85,346.041C233.026,345.885 233.151,345.674 233.225,345.408C233.299,345.143 233.336,344.848 233.336,344.523L233.336,344.4C233.336,344.084 233.299,343.792 233.225,343.524C233.151,343.257 233.026,343.043 232.85,342.883C232.674,342.723 232.434,342.643 232.129,342.643C231.836,342.643 231.603,342.723 231.429,342.883C231.255,343.043 231.131,343.257 231.057,343.524C230.983,343.792 230.945,344.084 230.945,344.4L230.945,344.523Z" style="fill:url(#_Linear6);fill-rule:nonzero;"/>
            <path d="M237.983,347.629L236.149,347.629L236.149,341.289L237.871,341.289L237.983,342.619L237.983,347.629ZM237.25,344.277C237.25,343.676 237.343,343.142 237.528,342.675C237.714,342.208 237.991,341.841 238.36,341.573C238.73,341.306 239.186,341.172 239.729,341.172C240.291,341.172 240.748,341.345 241.1,341.69C241.451,342.036 241.627,342.605 241.627,343.398L241.627,347.629L239.793,347.629L239.793,343.633C239.793,343.363 239.759,343.158 239.691,343.018C239.622,342.877 239.524,342.781 239.395,342.73C239.266,342.68 239.109,342.654 238.926,342.654C238.723,342.654 238.547,342.693 238.399,342.771C238.25,342.85 238.126,342.96 238.026,343.102C237.927,343.245 237.854,343.414 237.807,343.609C237.76,343.805 237.736,344.019 237.736,344.254L237.25,344.277ZM240.83,344.23C240.826,343.648 240.915,343.127 241.097,342.666C241.278,342.205 241.55,341.841 241.911,341.573C242.273,341.306 242.723,341.172 243.262,341.172C243.664,341.172 244.017,341.25 244.319,341.406C244.622,341.562 244.858,341.819 245.026,342.177C245.193,342.534 245.277,343.014 245.277,343.615L245.277,347.629L243.438,347.629L243.438,343.615C243.438,343.35 243.403,343.148 243.335,343.012C243.267,342.875 243.168,342.781 243.039,342.73C242.91,342.68 242.756,342.654 242.576,342.654C242.385,342.654 242.219,342.691 242.078,342.766C241.938,342.84 241.821,342.945 241.73,343.082C241.638,343.219 241.568,343.381 241.519,343.568C241.47,343.756 241.445,343.959 241.445,344.178L240.83,344.23Z" style="fill:url(#_Linear7);fill-rule:nonzero;"/>
        </g>
    </g>
    <defs>
        <linearGradient id="_Linear1" x1="0" y1="0" x2="1" y2="0" gradientUnits="userSpaceOnUse" gradientTransform="matrix(47.4551,0,0,9.11719,197.822,343.187)"><stop offset="0" style="stop-color:rgb(178,0,254);stop-opacity:1"/><stop offset="1" style="stop-color:rgb(255,78,1);stop-opacity:1"/></linearGradient>
        <linearGradient id="_Linear2" x1="0" y1="0" x2="1" y2="0" gradientUnits="userSpaceOnUse" gradientTransform="matrix(47.4551,0,0,9.11719,197.822,343.187)"><stop offset="0" style="stop-color:rgb(178,0,254);stop-opacity:1"/><stop offset="1" style="stop-color:rgb(255,78,1);stop-opacity:1"/></linearGradient>
        <linearGradient id="_Linear3" x1="0" y1="0" x2="1" y2="0" gradientUnits="userSpaceOnUse" gradientTransform="matrix(47.4551,0,0,9.11719,197.822,343.187)"><stop offset="0" style="stop-color:rgb(178,0,254);stop-opacity:1"/><stop offset="1" style="stop-color:rgb(255,78,1);stop-opacity:1"/></linearGradient>
        <linearGradient id="_Linear4" x1="0" y1="0" x2="1" y2="0" gradientUnits="userSpaceOnUse" gradientTransform="matrix(47.4551,0,0,9.11719,197.822,343.187)"><stop offset="0" style="stop-color:rgb(178,0,254);stop-opacity:1"/><stop offset="1" style="stop-color:rgb(255,78,1);stop-opacity:1"/></linearGradient>
        <linearGradient id="_Linear5" x1="0" y1="0" x2="1" y2="0" gradientUnits="userSpaceOnUse" gradientTransform="matrix(47.4551,0,0,9.11719,197.822,343.187)"><stop offset="0" style="stop-color:rgb(178,0,254);stop-opacity:1"/><stop offset="1" style="stop-color:rgb(255,78,1);stop-opacity:1"/></linearGradient>
        <linearGradient id="_Linear6" x1="0" y1="0" x2="1" y2="0" gradientUnits="userSpaceOnUse" gradientTransform="matrix(47.4551,0,0,9.11719,197.822,343.187)"><stop offset="0" style="stop-color:rgb(178,0,254);stop-opacity:1"/><stop offset="1" style="stop-color:rgb(255,78,1);stop-opacity:1"/></linearGradient>
        <linearGradient id="_Linear7" x1="0" y1="0" x2="1" y2="0" gradientUnits="userSpaceOnUse" gradientTransform="matrix(47.4551,0,0,9.11719,197.822,343.187)"><stop offset="0" style="stop-color:rgb(178,0,254);stop-opacity:1"/><stop offset="1" style="stop-color:rgb(255,78,1);stop-opacity:1"/></linearGradient>
    </defs>
</svg>
